<svg viewBox="0 0 900 600" xmlns="http://www.w3.org/2000/svg">
  <defs>
    <marker id="arrow" markerWidth="10" markerHeight="10" refX="9" refY="3" orient="auto" markerUnits="strokeWidth">
      <path d="M0,0 l10,3 l-10,3 z" fill="#333"/>
    </marker>
  </defs>
  
  <!-- Background -->
  <rect width="900" height="600" fill="#ffffff"/>
  
  <!-- Title -->
  <text x="450" y="30" text-anchor="middle" font-size="16" font-weight="bold" fill="#333">配电网EMT仿真方法体系</text>
  
  <!-- Input nodes (blue) -->
  <rect x="50" y="60" width="160" height="40" rx="8" fill="#dbeafe" stroke="#2563eb" stroke-width="2"/>
  <text x="130" y="85" text-anchor="middle" font-size="12" fill="#1e40af">配电网拓扑</text>
  
  <rect x="50" y="120" width="160" height="40" rx="8" fill="#dbeafe" stroke="#2563eb" stroke-width="2"/>
  <text x="130" y="145" text-anchor="middle" font-size="12" fill="#1e40af">线路/元件参数</text>
  
  <rect x="50" y="180" width="160" height="40" rx="8" fill="#dbeafe" stroke="#2563eb" stroke-width="2"/>
  <text x="130" y="205" text-anchor="middle" font-size="12" fill="#1e40af">激励源 (雷电/开关)</text>
  
  <!-- Arrows from inputs -->
  <line x1="210" y1="80" x2="330" y2="120" stroke="#333" stroke-width="1.5" marker-end="url(#arrow)"/>
  <line x1="210" y1="140" x2="330" y2="140" stroke="#333" stroke-width="1.5" marker-end="url(#arrow)"/>
  <line x1="210" y1="200" x2="330" y2="160" stroke="#333" stroke-width="1.5" marker-end="url(#arrow)"/>
  
  <!-- Core processing (green) -->
  <rect x="340" y="100" width="200" height="80" rx="8" fill="#dcfce7" stroke="#16a34a" stroke-width="2"/>
  <text x="440" y="125" text-anchor="middle" font-size="13" font-weight="bold" fill="#166534">节点导纳矩阵构建</text>
  <text x="440" y="145" text-anchor="middle" font-size="11" fill="#166534">Y_bus · V = I (梯形离散)</text>
  
  <!-- Branch: 6 methods -->
  <!-- Method 1: PCG (yellow) -->
  <rect x="570" y="55" width="130" height="55" rx="8" fill="#fef3c7" stroke="#d97706" stroke-width="2"/>
  <text x="635" y="77" text-anchor="middle" font-size="11" font-weight="bold" fill="#92400e">PCG迭代求解</text>
  <text x="635" y="93" text-anchor="middle" font-size="10" fill="#92400e">FPGA加速 12.5×</text>
  
  <!-- Method 2: Compensation (yellow) -->
  <rect x="570" y="120" width="130" height="55" rx="8" fill="#fef3c7" stroke="#d97706" stroke-width="2"/>
  <text x="635" y="142" text-anchor="middle" font-size="11" font-weight="bold" fill="#92400e">补偿法并行</text>
  <text x="635" y="158" text-anchor="middle" font-size="10" fill="#92400e">4核 3.63× 实时</text>
  
  <!-- Method 3: Hybrid (yellow) -->
  <rect x="570" y="185" width="130" height="55" rx="8" fill="#fef3c7" stroke="#d97706" stroke-width="2"/>
  <text x="635" y="207" text-anchor="middle" font-size="11" font-weight="bold" fill="#92400e">混合离散法</text>
  <text x="635" y="223" text-anchor="middle" font-size="10" fill="#92400e">DAE聚合 271×</text>
  
  <!-- Method 4: JMarti (yellow) -->
  <rect x="570" y="250" width="130" height="55" rx="8" fill="#fef3c7" stroke="#d97706" stroke-width="2"/>
  <text x="635" y="272" text-anchor="middle" font-size="11" font-weight="bold" fill="#92400e">JMarti频变模型</text>
  <text x="635" y="288" text-anchor="middle" font-size="10" fill="#92400e">有理拟合 &lt;2%误差</text>
  
  <!-- Method 5: CVF (yellow) -->
  <rect x="570" y="315" width="130" height="55" rx="8" fill="#fef3c7" stroke="#d97706" stroke-width="2"/>
  <text x="635" y="337" text-anchor="middle" font-size="11" font-weight="bold" fill="#92400e">CVF频移逼近</text>
  <text x="635" y="353" text-anchor="middle" font-size="10" fill="#92400e">步长2.33-5.5×</text>
  
  <!-- Method 6: EMD (yellow) -->
  <rect x="570" y="380" width="130" height="55" rx="8" fill="#fef3c7" stroke="#d97706" stroke-width="2"/>
  <text x="635" y="402" text-anchor="middle" font-size="11" font-weight="bold" fill="#92400e">EMD电流源等效</text>
  <text x="635" y="418" text-anchor="middle" font-size="10" fill="#92400e">场路解耦 高效扫描</text>
  
  <!-- Arrows from core to methods -->
  <line x1="540" y1="120" x2="565" y2="75" stroke="#333" stroke-width="1.5" marker-end="url(#arrow)"/>
  <line x1="540" y1="135" x2="565" y2="135" stroke="#333" stroke-width="1.5" marker-end="url(#arrow)"/>
  <line x1="540" y1="150" x2="565" y2="200" stroke="#333" stroke-width="1.5" marker-end="url(#arrow)"/>
  <line x1="540" y1="160" x2="565" y2="265" stroke="#333" stroke-width="1.5" marker-end="url(#arrow)"/>
  <line x1="540" y1="170" x2="565" y2="330" stroke="#333" stroke-width="1.5" marker-end="url(#arrow)"/>
  <line x1="540" y1="180" x2="565" y2="395" stroke="#333" stroke-width="1.5" marker-end="url(#arrow)"/>
  
  <!-- Output nodes (purple) -->
  <rect x="730" y="55" width="140" height="55" rx="8" fill="#ede9fe" stroke="#7c3aed" stroke-width="2"/>
  <text x="800" y="77" text-anchor="middle" font-size="11" font-weight="bold" fill="#5b21b6">节点电压波形</text>
  <text x="800" y="93" text-anchor="middle" font-size="10" fill="#5b21b6">V(t) 时域响应</text>
  
  <rect x="730" y="140" width="140" height="55" rx="8" fill="#ede9fe" stroke="#7c3aed" stroke-width="2"/>
  <text x="800" y="162" text-anchor="middle" font-size="11" font-weight="bold" fill="#5b21b6">感应过电压</text>
  <text x="800" y="178" text-anchor="middle" font-size="10" fill="#5b21b6">LIOV 峰值评估</text>
  
  <rect x="730" y="225" width="140" height="55" rx="8" fill="#ede9fe" stroke="#7c3aed" stroke-width="2"/>
  <text x="800" y="247" text-anchor="middle" font-size="11" font-weight="bold" fill="#5b21b6">开关暂态分析</text>
  <text x="800" y="263" text-anchor="middle" font-size="10" fill="#5b21b6">谐波/振荡评估</text>
  
  <rect x="730" y="310" width="140" height="55" rx="8" fill="#ede9fe" stroke="#7c3aed" stroke-width="2"/>
  <text x="800" y="332" text-anchor="middle" font-size="11" font-weight="bold" fill="#5b21b6">功率质量评估</text>
  <text x="800" y="348" text-anchor="middle" font-size="10" fill="#5b21b6">不平衡/谐波指标</text>
  
  <rect x="730" y="395" width="140" height="55" rx="8" fill="#ede9fe" stroke="#7c3aed" stroke-width="2"/>
  <text x="800" y="417" text-anchor="middle" font-size="11" font-weight="bold" fill="#5b21b6">实时/HIL验证</text>
  <text x="800" y="433" text-anchor="middle" font-size="10" fill="#5b21b6">步长/加速比验证</text>
  
  <!-- Arrows from methods to outputs -->
  <line x1="700" y1="75" x2="725" y2="75" stroke="#333" stroke-width="1.5" marker-end="url(#arrow)"/>
  <line x1="700" y1="135" x2="725" y2="155" stroke="#333" stroke-width="1.5" marker-end="url(#arrow)"/>
  <line x1="700" y1="200" x2="725" y2="240" stroke="#333" stroke-width="1.5" marker-end="url(#arrow)"/>
  <line x1="700" y1="265" x2="725" y2="320" stroke="#333" stroke-width="1.5" marker-end="url(#arrow)"/>
  <line x1="700" y1="330" x2="725" y2="395" stroke="#333" stroke-width="1.5" marker-end="url(#arrow)"/>
  <line x1="700" y1="395" x2="725" y2="410" stroke="#333" stroke-width="1.5" marker-end="url(#arrow)"/>
  
  <!-- Legend -->
  <rect x="50" y="470" width="12" height="12" fill="#dbeafe" stroke="#2563eb" stroke-width="1"/>
  <text x="68" y="480" font-size="10" fill="#333">输入/源</text>
  
  <rect x="140" y="470" width="12" height="12" fill="#dcfce7" stroke="#16a34a" stroke-width="1"/>
  <text x="158" y="480" font-size="10" fill="#333">处理/模型</text>
  
  <rect x="240" y="470" width="12" height="12" fill="#fef3c7" stroke="#d97706" stroke-width="1"/>
  <text x="258" y="480" font-size="10" fill="#333">算法/方法</text>
  
  <rect x="350" y="470" width="12" height="12" fill="#ede9fe" stroke="#7c3aed" stroke-width="1"/>
  <text x="368" y="480" font-size="10" fill="#333">输出/结果</text>
  
  <!-- Key metrics -->
  <text x="500" y="510" text-anchor="middle" font-size="11" fill="#666">关键性能：加速比 12.5× ~ 271× | 拟合误差 &lt; 2% | 雷电感应电压误差 &lt; 28% | 实时步长 40 μs</text>
  <text x="500" y="535" text-anchor="middle" font-size="10" fill="#999">来源：Shukla 2021, De Conti 2025, Bruned 2021, Debnath &amp; Choi 2023, Kida 2025</text>
</svg>